# xmcd CD database file
#
# Track frame offsets:
#	150
#	16650
#	36450
#	54225
#	73427
#	91052
#	109952
#	125930
#	142055
#	160430
#
# Disc length: 2380 seconds
#
# Revision: 4
# Processed by: cddbd v1.4PL0 Copyright (c) Steve Scherf et al.
# Submitted via: CDex 1.50Beta6
#
DISCID=94094a0a
DTITLE=Enrique Iglesias - Bailamos (Greatest Hits)
DYEAR=1999
DGENRE=Latin
TTITLE0=Bailamos
TTITLE1=Si Juras Regresar
TTITLE2=Tu Vacío
TTITLE3=El Muro
TTITLE4=Falta Tanto Amor
TTITLE5=Esperanza (Radio Mix)
TTITLE6=Only You (Solo En Tí) [English Version]
TTITLE7=Inalcanzable
TTITLE8=Viviré Y Moriré
TTITLE9=Nunca Te Olvidaré (Radio Mix)
EXTD=YEAR: 1999
EXTT0=
EXTT1=
EXTT2=
EXTT3=
EXTT4=
EXTT5=
EXTT6=
EXTT7=
EXTT8=
EXTT9=
PLAYORDER=
